<svg xmlns="http://www.w3.org/2000/svg" xmlns:xlink="http://www.w3.org/1999/xlink" id="svg" version="1.1" width="60" height="70" viewBox="0, 0, 400,465.5737704918033"><g id="svgg"><path id="path0" d="M193.200 53.469 C 192.210 53.540,188.250 53.868,184.400 54.199 C 180.550 54.530,175.150 54.975,172.400 55.187 C 169.375 55.422,166.531 55.884,165.200 56.358 C 163.990 56.789,161.999 57.505,160.775 57.950 C 159.552 58.395,156.942 58.958,154.975 59.201 C 152.147 59.550,150.856 59.941,148.800 61.070 C 147.327 61.879,144.472 62.925,142.215 63.483 C 139.344 64.192,137.795 64.812,136.676 65.698 C 135.812 66.382,133.949 67.254,132.482 67.661 C 131.030 68.064,129.202 68.907,128.421 69.535 C 126.647 70.960,124.981 71.822,123.299 72.184 C 122.583 72.338,121.235 73.154,120.303 73.998 C 119.371 74.842,117.616 75.929,116.404 76.414 C 115.192 76.899,113.840 77.707,113.400 78.209 C 112.960 78.712,111.626 79.693,110.436 80.389 C 109.246 81.085,107.928 82.092,107.507 82.628 C 107.086 83.163,105.900 84.079,104.871 84.664 C 103.842 85.248,102.280 86.384,101.400 87.188 C 100.520 87.992,99.170 89.116,98.400 89.685 C 97.165 90.598,90.260 97.028,88.256 99.132 C 86.065 101.432,84.378 103.358,83.380 104.698 C 82.766 105.524,81.662 106.816,80.929 107.569 C 80.195 108.322,79.123 109.762,78.546 110.769 C 77.969 111.776,76.913 113.140,76.201 113.800 C 75.488 114.460,74.538 115.720,74.091 116.600 C 73.644 117.480,72.793 118.650,72.201 119.200 C 71.609 119.750,70.592 121.370,69.942 122.800 C 69.293 124.230,68.237 125.941,67.597 126.601 C 66.958 127.262,66.157 128.589,65.818 129.550 C 65.479 130.511,64.493 132.358,63.627 133.654 C 62.762 134.950,61.776 136.953,61.436 138.105 C 61.096 139.257,60.094 141.280,59.210 142.600 C 58.326 143.920,57.602 145.277,57.601 145.616 C 57.598 147.048,56.292 151.105,55.418 152.400 C 54.255 154.121,53.412 156.772,52.644 161.119 C 52.322 162.944,51.507 165.614,50.834 167.053 C 49.606 169.676,49.525 170.129,48.388 180.600 C 48.150 182.800,47.560 186.940,47.077 189.800 C 45.865 196.988,45.902 210.519,47.152 216.677 C 47.607 218.920,48.253 223.420,48.587 226.677 C 49.400 234.614,49.565 235.542,50.487 237.361 C 51.779 239.909,52.356 241.858,52.997 245.841 C 53.454 248.686,53.997 250.369,55.211 252.705 C 56.234 254.672,57.035 256.946,57.412 258.945 C 57.856 261.302,58.317 262.485,59.256 263.671 C 59.999 264.609,60.877 266.520,61.415 268.369 C 62.420 271.827,63.232 273.597,64.172 274.377 C 64.516 274.662,65.163 276.089,65.610 277.548 C 66.057 279.007,67.070 281.146,67.862 282.303 C 68.654 283.459,69.737 285.605,70.269 287.071 C 70.801 288.536,71.748 290.318,72.374 291.031 C 72.999 291.744,73.807 293.218,74.169 294.307 C 74.531 295.396,75.471 297.040,76.258 297.959 C 77.045 298.878,78.042 300.569,78.474 301.715 C 78.906 302.862,79.780 304.342,80.415 305.004 C 81.051 305.666,82.225 307.551,83.024 309.193 C 83.823 310.835,84.797 312.403,85.188 312.677 C 85.580 312.951,86.304 314.036,86.797 315.088 C 87.290 316.140,88.296 317.669,89.033 318.486 C 89.769 319.303,90.847 320.923,91.428 322.086 C 92.009 323.249,92.976 324.740,93.577 325.400 C 94.179 326.060,95.153 327.447,95.741 328.482 C 96.330 329.516,97.144 330.596,97.549 330.882 C 97.955 331.167,98.892 332.390,99.631 333.600 C 100.370 334.810,101.745 336.752,102.687 337.916 C 103.629 339.079,104.400 340.202,104.400 340.411 C 104.400 340.620,105.300 341.785,106.400 343.000 C 107.500 344.215,108.400 345.378,108.400 345.586 C 108.400 345.793,109.165 346.758,110.100 347.731 C 111.035 348.703,112.610 350.617,113.600 351.984 C 117.868 357.878,118.460 358.641,119.355 359.400 C 119.874 359.840,120.771 360.960,121.348 361.890 C 121.925 362.819,122.857 363.881,123.419 364.249 C 123.981 364.618,124.701 365.421,125.018 366.035 C 125.335 366.649,126.451 368.044,127.498 369.136 C 129.622 371.351,131.702 373.693,136.264 379.000 C 142.206 385.915,154.193 398.904,157.304 401.800 C 157.777 402.240,158.532 403.034,158.982 403.565 C 159.432 404.096,160.318 404.996,160.952 405.565 C 161.586 406.134,162.576 407.111,163.152 407.736 C 164.228 408.902,164.389 409.058,167.795 412.228 C 168.892 413.249,170.836 414.612,172.115 415.258 C 173.394 415.904,175.003 416.969,175.690 417.626 C 176.377 418.283,177.403 418.922,177.970 419.047 C 181.047 419.725,184.598 420.838,185.433 421.385 C 189.589 424.108,204.007 424.095,209.827 421.363 C 210.941 420.840,213.228 420.068,214.907 419.648 C 217.062 419.110,218.468 418.474,219.681 417.492 C 220.626 416.726,222.415 415.607,223.655 415.006 C 224.896 414.405,226.122 413.519,226.381 413.036 C 226.639 412.553,227.574 411.717,228.459 411.179 C 229.343 410.640,230.321 409.713,230.634 409.119 C 230.946 408.524,231.999 407.489,232.974 406.818 C 233.949 406.147,234.858 405.246,234.995 404.816 C 235.132 404.385,235.999 403.442,236.922 402.719 C 237.845 401.997,238.673 401.225,238.762 401.003 C 238.918 400.615,243.070 396.246,244.847 394.600 C 245.322 394.160,246.091 393.383,246.555 392.874 C 247.020 392.365,248.313 391.015,249.430 389.874 C 250.546 388.733,251.757 387.318,252.120 386.728 C 252.484 386.138,253.326 385.334,253.991 384.941 C 254.657 384.548,255.299 383.917,255.419 383.539 C 255.612 382.933,257.020 381.339,261.655 376.482 C 262.347 375.758,263.453 374.408,264.114 373.482 C 264.775 372.557,266.145 370.871,267.158 369.736 C 268.171 368.601,269.990 366.474,271.200 365.010 C 272.410 363.546,274.229 361.501,275.242 360.466 C 276.255 359.431,277.363 358.047,277.703 357.392 C 278.044 356.736,278.878 355.791,279.558 355.290 C 280.237 354.790,281.157 353.668,281.602 352.796 C 282.047 351.925,282.868 350.912,283.428 350.545 C 283.988 350.178,284.781 349.221,285.191 348.418 C 285.600 347.615,286.734 346.068,287.710 344.979 C 288.685 343.891,289.784 342.415,290.152 341.701 C 290.519 340.986,291.420 339.855,292.154 339.187 C 292.888 338.520,293.900 337.173,294.403 336.194 C 294.906 335.215,295.740 334.138,296.256 333.800 C 296.772 333.462,297.634 332.316,298.173 331.254 C 298.711 330.191,299.973 328.360,300.976 327.185 C 301.979 326.009,302.800 324.804,302.800 324.507 C 302.800 324.209,303.590 323.118,304.556 322.083 C 305.522 321.047,306.603 319.501,306.958 318.646 C 307.313 317.792,308.253 316.374,309.047 315.495 C 309.841 314.617,310.847 313.091,311.283 312.106 C 311.719 311.120,312.619 309.748,313.283 309.057 C 313.947 308.366,314.913 306.849,315.429 305.687 C 315.945 304.525,316.989 302.815,317.748 301.887 C 318.508 300.959,319.447 299.390,319.836 298.400 C 320.225 297.410,321.140 295.894,321.869 295.032 C 322.597 294.169,323.561 292.483,324.009 291.284 C 324.457 290.086,325.421 288.361,326.151 287.452 C 326.881 286.544,327.792 284.810,328.174 283.600 C 328.557 282.390,329.575 280.462,330.436 279.316 C 331.397 278.038,332.169 276.451,332.435 275.210 C 332.674 274.094,333.590 272.108,334.479 270.777 C 335.463 269.303,336.371 267.268,336.816 265.536 C 337.217 263.980,338.185 261.668,338.968 260.400 C 339.829 259.005,340.620 257.004,340.971 255.337 C 341.643 252.143,342.016 251.089,343.645 247.774 C 344.419 246.198,345.038 244.027,345.411 241.574 C 346.057 237.319,346.296 236.443,347.783 232.862 C 348.568 230.972,348.937 229.135,349.229 225.662 C 349.445 223.098,349.806 219.470,350.031 217.600 C 350.705 211.990,350.910 200.555,350.435 195.000 C 350.191 192.140,349.812 187.190,349.594 184.000 C 349.184 178.010,348.749 175.789,347.046 171.000 C 346.499 169.460,345.762 166.400,345.409 164.200 C 344.959 161.396,344.301 159.184,343.208 156.800 C 342.351 154.930,341.363 152.140,341.013 150.600 C 340.658 149.041,339.768 146.810,339.004 145.566 C 338.249 144.337,337.197 141.961,336.665 140.287 C 336.066 138.400,335.182 136.639,334.342 135.657 C 333.596 134.786,332.753 133.204,332.469 132.143 C 332.185 131.081,331.265 129.310,330.425 128.207 C 329.584 127.103,328.539 125.390,328.103 124.400 C 327.666 123.410,326.815 122.150,326.211 121.600 C 325.608 121.050,324.674 119.610,324.137 118.400 C 323.600 117.190,322.469 115.480,321.624 114.600 C 320.779 113.720,319.794 112.417,319.435 111.704 C 319.077 110.991,318.328 110.109,317.771 109.744 C 317.215 109.380,316.515 108.610,316.217 108.033 C 315.030 105.737,305.771 96.008,300.387 91.400 C 298.588 89.860,296.438 87.942,295.610 87.138 C 294.782 86.334,293.332 85.188,292.388 84.592 C 291.444 83.997,290.229 82.983,289.688 82.340 C 289.147 81.697,288.075 80.908,287.306 80.587 C 286.538 80.265,285.267 79.439,284.482 78.750 C 283.698 78.061,282.010 77.003,280.731 76.399 C 279.453 75.794,277.685 74.647,276.802 73.850 C 275.920 73.052,274.883 72.396,274.499 72.391 C 273.443 72.378,270.751 71.035,269.400 69.848 C 268.738 69.267,266.764 68.352,265.000 67.810 C 263.167 67.247,261.190 66.322,260.373 65.644 C 259.333 64.783,257.833 64.187,254.849 63.450 C 252.357 62.835,249.949 61.945,248.700 61.177 C 247.071 60.174,245.709 59.763,242.088 59.182 C 239.246 58.726,236.223 57.926,234.064 57.058 C 231.963 56.214,229.577 55.576,228.000 55.436 C 225.622 55.225,219.035 54.690,205.492 53.608 C 200.636 53.220,197.210 53.181,193.200 53.469 M210.585 143.591 C 213.502 143.898,214.783 144.269,217.461 145.584 C 219.271 146.473,221.091 147.200,221.504 147.200 C 223.015 147.200,226.289 148.415,227.034 149.252 C 227.455 149.726,229.240 150.784,231.000 151.604 C 232.760 152.424,234.650 153.586,235.200 154.186 C 235.750 154.787,236.845 155.608,237.632 156.013 C 238.420 156.417,239.548 157.380,240.138 158.154 C 240.728 158.928,241.724 159.865,242.351 160.235 C 242.979 160.605,243.817 161.469,244.214 162.154 C 244.611 162.839,245.632 164.004,246.482 164.743 C 247.332 165.482,248.362 166.742,248.771 167.543 C 249.181 168.344,250.136 169.658,250.895 170.462 C 251.681 171.295,252.503 172.740,252.806 173.821 C 253.098 174.865,253.918 176.479,254.628 177.409 C 256.441 179.784,256.657 180.268,257.218 183.200 C 257.492 184.630,258.305 187.060,259.024 188.600 C 262.067 195.118,262.176 210.158,259.223 216.200 C 258.577 217.520,257.680 220.295,257.228 222.367 C 256.623 225.140,255.998 226.777,254.860 228.567 C 253.989 229.938,253.107 231.981,252.840 233.248 C 252.512 234.802,251.926 236.010,250.940 237.162 C 250.078 238.168,249.216 239.821,248.761 241.337 C 248.314 242.829,247.445 244.505,246.618 245.470 C 245.854 246.363,244.844 248.123,244.373 249.380 C 243.903 250.637,243.020 252.236,242.412 252.933 C 241.803 253.630,240.813 255.190,240.211 256.400 C 239.610 257.610,238.527 259.230,237.805 260.000 C 237.084 260.770,236.273 262.090,236.004 262.934 C 235.735 263.778,234.717 265.367,233.742 266.465 C 232.767 267.563,231.691 269.157,231.350 270.007 C 231.010 270.857,230.298 271.837,229.768 272.184 C 229.237 272.532,228.280 273.848,227.639 275.108 C 226.999 276.369,225.902 277.940,225.200 278.600 C 224.499 279.260,223.503 280.627,222.988 281.638 C 222.472 282.648,221.609 283.764,221.070 284.117 C 220.531 284.470,219.678 285.443,219.174 286.280 C 218.671 287.116,217.525 288.621,216.629 289.623 C 215.733 290.626,214.689 291.976,214.309 292.623 C 213.368 294.224,208.279 300.468,203.900 305.393 C 202.635 306.816,201.600 308.157,201.600 308.374 C 201.600 311.182,195.821 310.827,193.459 307.874 C 192.767 307.008,191.555 305.557,190.767 304.650 C 189.979 303.742,188.657 301.965,187.828 300.700 C 187.000 299.435,186.157 298.400,185.956 298.400 C 185.755 298.400,184.982 297.455,184.239 296.300 C 183.496 295.145,182.398 293.750,181.800 293.200 C 181.202 292.650,180.128 291.300,179.415 290.200 C 178.701 289.100,177.711 287.840,177.216 287.400 C 176.720 286.960,175.966 285.917,175.540 285.082 C 175.114 284.247,174.176 282.897,173.455 282.082 C 172.735 281.267,171.724 279.880,171.210 279.000 C 170.696 278.120,169.702 276.770,169.002 276.000 C 168.301 275.230,167.237 273.738,166.638 272.684 C 166.038 271.630,165.045 270.190,164.430 269.484 C 163.815 268.778,162.934 267.338,162.472 266.285 C 162.010 265.232,161.097 263.836,160.444 263.182 C 159.791 262.529,158.796 260.990,158.234 259.762 C 157.672 258.535,156.732 256.961,156.146 256.265 C 155.559 255.569,154.589 253.920,153.990 252.600 C 153.391 251.280,152.350 249.514,151.675 248.676 C 151.001 247.838,150.076 246.038,149.621 244.676 C 149.165 243.314,148.174 241.422,147.419 240.472 C 146.558 239.389,145.859 237.912,145.546 236.516 C 145.272 235.291,144.357 233.220,143.513 231.914 C 142.456 230.278,141.730 228.471,141.177 226.100 C 140.736 224.208,139.740 221.377,138.965 219.808 C 135.440 212.675,135.707 191.253,139.403 184.632 C 139.928 183.691,140.574 182.039,140.837 180.961 C 141.416 178.593,142.047 177.293,143.803 174.849 C 144.536 173.828,145.266 172.474,145.426 171.840 C 145.585 171.206,146.382 170.038,147.198 169.244 C 148.014 168.450,148.974 167.232,149.331 166.539 C 150.226 164.800,158.415 156.674,160.060 155.892 C 160.797 155.542,161.940 154.680,162.600 153.976 C 163.260 153.272,164.790 152.254,166.000 151.714 C 167.210 151.173,168.740 150.323,169.400 149.825 C 171.255 148.424,172.836 147.720,174.800 147.419 C 175.790 147.267,178.040 146.440,179.800 145.581 C 184.336 143.366,199.270 142.401,210.585 143.591 " stroke="none" fill="#05cbcb" fill-rule="evenodd" style="&#10;    stroke: black;&#10;    stroke-width: 3px;&#10;    fill: red;&#10;"/></g></svg>